<svg xmlns="http://www.w3.org/2000/svg" viewBox="0 0 30 30" height="48" width="48"><path fill-rule="evenodd" d="M15.6 7.67a6.2 6.2 0 01-8 8l8-8zm-.57-1.13l-8.56 8.55a6.22 6.22 0 01-1.23-1.02.6.6 0 00.07-.06l8.7-8.7a6.22 6.22 0 011.02 1.22zm-1.98-1.96L4.5 13.11a6.2 6.2 0 018.54-8.53zm1.32-.66a7.5 7.5 0 00-9.88 11.24 7.5 7.5 0 007.79 1.78l11.28 10.15 1.26-1.27 2.55 2.56a.6.6 0 00.85-.85l-2.55-2.56 1.42-1.42-10.18-11.31a7.5 7.5 0 00-2.44-8.25.6.6 0 00-.1-.07zm1.96 9.62a7.5 7.5 0 01-1.23 1.62c-.47.47-.99.87-1.54 1.19l7.42 6.67 2.04-2.04-6.69-7.44zm5.54 10.29l1.96-1.96 1.47 1.64-1.8 1.79-1.63-1.47z"></path></svg>