<svg xmlns="http://www.w3.org/2000/svg" viewBox="0 0 30 30" height="48" width="48"><path d="M26 18.7c.3 0 .6-.3.6-.6s-.3-.6-.6-.6h-4.9V6.6c0-2.3-1.8-4.1-4.1-4.1-.3 0-.6.3-.6.6s.3.6.6.6c1.6 0 2.9 1.3 2.9 2.9v.9h-9.3v-.9c0-2.3-1.8-4.1-4.1-4.1-.3 0-.6.3-.6.6s.3.6.6.6c1.6 0 2.9 1.3 2.9 2.9v10.9H4c-.3 0-.6.3-.6.6s.3.6.6.6h22zm-6.1-10v3.8h-9.3V8.7h9.3zm-9.3 5h9.3v3.8h-9.3v-3.8zm16 8c0 .3-.3.6-.6.6H8.8c-.3 0-.6-.3-.6-.6s.3-.6.6-.6H26c.3 0 .6.3.6.6zm-12.4 5.2c0 .3-.3.6-.6.6H5.8c-.3 0-.6-.3-.6-.6s.3-.6.6-.6h7.8c.3 0 .6.3.6.6z"></path></svg>
