<svg xmlns="http://www.w3.org/2000/svg" version="1.1" x="0px" y="0px" viewBox="0 0 100 100" enable-background="new 0 0 100 100" xml:space="preserve"><g><path d="M69.2,12.76V5.01H56.86v7.75H25.59V5.01H13.25v7.75H4.91v52.82c0,6.43,5.23,11.67,11.67,11.67h25.17   c-0.39-1.3-0.7-2.63-0.9-4H16.58c-4.23,0-7.67-3.44-7.67-7.67V32.12h64.25v8.61c1.37,0.19,2.7,0.48,4,0.87V12.76H69.2z M60.86,9.01   h4.34v10.96h-4.34V9.01z M17.25,9.01h4.34v10.96h-4.34V9.01z M73.16,28.12H8.91V16.76h4.34v7.21h12.34v-7.21h31.27v7.21H69.2v-7.21   h3.96V28.12z"/></g><g><g><path d="M77.16,44.24c-1.29-0.43-2.63-0.76-4-0.97c-1.34-0.22-2.71-0.33-4.1-0.33c-14.35,0-26.02,11.68-26.02,26.03    c0,1.46,0.12,2.89,0.36,4.28c0.22,1.37,0.56,2.71,1,4c3.46,10.3,13.2,17.74,24.66,17.74c14.35,0,26.03-11.67,26.03-26.02    C95.09,57.45,87.56,47.65,77.16,44.24z M69.06,90.99c-9.21,0-17.12-5.69-20.4-13.74c-0.52-1.28-0.93-2.61-1.2-4    c-0.28-1.38-0.42-2.82-0.42-4.28c0-12.15,9.88-22.03,22.02-22.03c1.4,0,2.77,0.13,4.1,0.39c1.39,0.25,2.72,0.65,4,1.16    c8.15,3.23,13.93,11.19,13.93,20.48C91.09,81.11,81.21,90.99,69.06,90.99z"/></g><g><polygon points="82.36,79.27 80.95,80.68 79.53,82.09 72.41,74.97 69.53,72.1 67.23,69.8 67.23,56.89 71.23,56.89 71.23,68.14     72.26,69.17 75.17,72.08 78.21,75.12   "/></g></g></svg>