<svg xmlns="http://www.w3.org/2000/svg" viewBox="0 0 30 30" height="48" width="48"><path d="M15 2.2c-5 0-9 4-9 9s4 9 9 9 9-4 9-9c0-4.9-4-9-9-9zm0 16.7c-4.2 0-7.7-3.5-7.7-7.7s3.5-7.7 7.7-7.7 7.7 3.5 7.7 7.7c0 4.3-3.5 7.7-7.7 7.7zm1.3-7.4c0-.4.3-.6.7-.6.4 0 .6.3.6.7s-.3.6-.7.6-.6-.4-.6-.7zm-.9 1.8c0-.4.3-.6.7-.6s.6.3.6.7-.3.6-.7.6-.6-.3-.6-.7zm-.8 2.6c-.4 0-.6-.3-.6-.7 0-.4.3-.6.7-.6.4 0 .6.3.6.7s-.3.6-.7.6zm-.5 1.2c0 .4-.3.6-.7.6-.4 0-.6-.3-.6-.7s.3-.6.7-.6.7.4.6.7zm4.3-5.6c0-.4.3-.6.7-.6.4 0 .6.3.6.7s-.3.6-.7.6-.6-.4-.6-.7zm-.9 1.8c0-.4.3-.6.7-.6.4 0 .6.3.6.7s-.3.6-.7.6-.6-.3-.6-.7zm-.8 2.6c-.4 0-.6-.3-.6-.7 0-.4.3-.6.7-.6.4 0 .6.3.6.7s-.3.6-.7.6zm-.5 1.2c0 .4-.3.6-.7.6s-.6-.3-.6-.7.3-.6.7-.6c.4 0 .6.4.6.7zm5.6-5.5c0 .4-.3.6-.7.6-.4 0-.6-.3-.6-.7s.3-.6.7-.6.6.3.6.7zm-.9 1.8c0 .4-.3.6-.7.6-.4 0-.6-.3-.6-.7 0-.4.3-.6.7-.6.3.1.6.4.6.7zm-1.4 1.9c0 .4-.3.6-.7.6-.4 0-.6-.3-.6-.7 0-.4.3-.6.7-.6s.6.3.6.7zm-1.2 1.8c0 .4-.3.6-.7.6-.4 0-.6-.3-.6-.7s.3-.6.7-.6c.4 0 .6.4.6.7zm-.3 4.3c0 .4-.3.7-.7.7h-1.7v5c0 .4-.3.7-.6.7-.4 0-.7-.3-.7-.7v-5h-1.7c-.4 0-.7-.3-.7-.7s.3-.6.7-.6h4.7c.4 0 .7.2.7.6z"></path></svg>